<?xml version="1.0" encoding="utf-8"?>
<!-- Generator: Adobe Illustrator 13.0.0, SVG Export Plug-In . SVG Version: 6.00 Build 14948)  -->
<!DOCTYPE svg PUBLIC "-//W3C//DTD SVG 1.1//EN" "http://www.w3.org/Graphics/SVG/1.1/DTD/svg11.dtd">
<svg version="1.1" xmlns="http://www.w3.org/2000/svg" xmlns:xlink="http://www.w3.org/1999/xlink" x="0px" y="0px"
	 width="940.042px" height="312.75px" viewBox="0 0 940.042 312.75" enable-background="new 0 0 940.042 312.75"
	 xml:space="preserve">
<g id="bg">
	<g>
		<path d="M0,268c0,16.017,12.984,29,29,29h828.75c16.017,0,29-12.983,29-29V29c0-16.016-12.983-29-29-29H29C12.984,0,0,12.984,0,29
			V268z"/>
	</g>
</g>
<g id="iPhone">
	<path fill="#FFFFFF" d="M155.667,49.417H83.333c-9.941,0-18,8.059-18,18V229.75c0,9.941,8.059,18,18,18h72.333
				c9.941,0,18-8.059,18-18V67.417C173.667,57.476,165.607,49.417,155.667,49.417z M110.542,66.5h17.917c0.966,0,1.75,0.896,1.75,2
				s-0.784,2-1.75,2h-17.917c-0.966,0-1.75-0.896-1.75-2S109.575,66.5,110.542,66.5z M119.5,240c-5.799,0-10.5-4.7-10.5-10.5
				c0-5.799,4.701-10.5,10.5-10.5s10.5,4.701,10.5,10.5C130,235.3,125.299,240,119.5,240z M164.833,214.417H74.167v-132.7h90.667
				V214.417z"/>
</g>
<g id="text">
	<text transform="matrix(1 0 0 1 219.8501 155.8188)" fill="#FFFFFF" font-family="'Verdana'" font-size="55" letter-spacing="6">DOWNLOAD DE APP</text>
</g>
</svg>

