<?xml version="1.0" encoding="utf-8"?>
<!-- Generated by IcoMoon.io -->
<!DOCTYPE svg PUBLIC "-//W3C//DTD SVG 1.1//EN" "http://www.w3.org/Graphics/SVG/1.1/DTD/svg11.dtd">
<svg version="1.1" xmlns="http://www.w3.org/2000/svg" xmlns:xlink="http://www.w3.org/1999/xlink" width="128" height="128" viewBox="0 0 128 128">
<g>
</g>
	<path d="M116 16h-104c-6.6 0-12 5.4-12 12v80c0 6.6 5.4 12 12 12h104c6.6 0 12-5.4 12-12v-80c0-6.6-5.4-12-12-12zM49.843 68.796l-33.843 26.361v-62.705l33.843 36.344zM22.047 32h83.905l-41.953 31.5-41.953-31.5zM51.161 70.212l12.839 13.788 12.839-13.788 26.319 33.788h-78.316l26.319-33.788zM78.157 68.796l33.843-36.344v62.705l-33.843-26.362z" fill="#000000" />
</svg>
